<svg width="17" height="17" viewBox="0 0 17 17" fill="none" xmlns="http://www.w3.org/2000/svg">
<path fill-rule="evenodd" clip-rule="evenodd" d="M7.55562 7.55559H5.66388C5.15006 7.55559 4.72221 7.97834 4.72221 8.49997C4.72221 9.02518 5.14378 9.44435 5.66388 9.44435H7.55562V11.3361C7.55562 11.8499 7.97837 12.2778 8.5 12.2778C9.02521 12.2778 9.44438 11.8562 9.44438 11.3361V9.44435H11.3361C11.8499 9.44435 12.2778 9.0216 12.2778 8.49997C12.2778 7.97476 11.8562 7.55559 11.3361 7.55559H9.44438V5.66385C9.44438 5.15003 9.02163 4.72218 8.5 4.72218C7.97479 4.72218 7.55562 5.14374 7.55562 5.66385V7.55559ZM8.5 17C13.1944 17 17 13.1944 17 8.5C17 3.80557 13.1944 0 8.5 0C3.80557 0 0 3.80557 0 8.5C0 13.1944 3.80557 17 8.5 17Z" fill="#168F59"/>
</svg>
