<svg width="16" height="14" viewBox="0 0 16 14" fill="none" xmlns="http://www.w3.org/2000/svg">
<path d="M15.6463 6.03858L10.7115 0.390387C10.2568 -0.130129 9.49889 -0.130129 9.04412 0.390387C8.58936 0.910904 8.58936 1.77834 9.04412 2.29886L11.9579 5.65301H1.17892C0.522077 5.65301 0 6.25056 0 7.00237C0 7.75418 0.522077 8.35173 1.17892 8.35173H11.9579L9.04412 11.6866C8.58936 12.2072 8.58936 13.0746 9.04412 13.5951C9.27991 13.865 9.58313 14 9.88623 14C10.1893 14 10.4926 13.865 10.7283 13.5951L15.6463 7.96619C15.8652 7.71555 16 7.36864 16 7.00234C16 6.63604 15.882 6.28912 15.6463 6.03848L15.6463 6.03858Z" fill="#F6F6F5"/>
</svg>
