<svg width="102" height="106" viewBox="0 0 102 106" fill="none" xmlns="http://www.w3.org/2000/svg">
<path d="M98.5807 27.0352H42.2767V33.1074H95.4895V86.9826L78.3773 68.2148C76.5006 66.117 73.0783 66.117 71.2017 68.2148L59.3885 81.3518L40.8417 60.0446C38.8549 57.8368 35.4319 57.8368 33.4449 60.0446L9.70892 87.203V58.8302C7.50111 58.3889 5.51352 57.6157 3.63672 56.5114V102.659C3.63672 104.314 4.96128 105.75 6.72792 105.75H98.5807C100.236 105.75 101.672 104.425 101.672 102.659V30.1277C101.672 28.3612 100.237 27.0365 98.5807 27.0365V27.0352Z" fill="#191B1A"/>
<path d="M86.1076 49.9985C86.1076 54.0222 82.8454 57.2843 78.8218 57.2843C74.7973 57.2843 71.5352 54.0222 71.5352 49.9985C71.5352 45.974 74.7973 42.7119 78.8218 42.7119C82.8454 42.7119 86.1076 45.974 86.1076 49.9985Z" fill="#191B1A"/>
<path d="M13.2422 52.9792C20.3078 52.9792 26.0488 47.2382 26.0488 40.1726V18.6446C26.0488 14.339 22.5156 10.9168 18.321 10.9168C14.1256 10.9168 10.5932 14.45 10.5932 18.6446V40.1726C10.5932 41.608 11.8076 42.8224 13.243 42.8224C14.6783 42.8224 15.8928 41.608 15.8928 40.1726L15.892 18.6446C15.892 17.32 16.9963 16.3258 18.2108 16.3258C19.5353 16.3258 20.5296 17.4301 20.5296 18.6446V40.1726C20.5296 44.2572 17.2174 47.5694 13.1328 47.5694C9.04817 47.5694 5.73597 44.2572 5.73597 40.1726L5.73443 18.6446C5.73443 11.8 11.3646 6.16922 18.2098 6.16922C25.0544 6.16922 30.6852 11.7994 30.6852 18.6446V47.2382C30.6852 48.6736 31.8997 49.888 33.335 49.888C34.7704 49.888 35.9848 48.6736 35.9848 47.2382L35.984 18.6446C35.984 8.81901 27.925 0.76001 18.0994 0.76001C8.27385 0.76001 0.214844 8.81901 0.214844 18.6446V40.1726C0.324966 47.239 6.17605 52.9792 13.2416 52.9792H13.2422Z" fill="#191B1A"/>
</svg>
