<svg width="13" height="14" viewBox="0 0 13 14" fill="none" xmlns="http://www.w3.org/2000/svg">
<path d="M1.5402 6.37495H4.6597C5.0347 6.37381 5.39395 6.2244 5.65911 5.95915C5.92435 5.694 6.07376 5.33474 6.0749 4.95975V1.84025C6.07376 1.46525 5.92435 1.106 5.65911 0.840844C5.39395 0.575596 5.0347 0.42619 4.6597 0.425049H1.5402C1.16521 0.426187 0.805947 0.575601 0.540796 0.840844C0.275547 1.106 0.126141 1.46525 0.125 1.84025V4.95975C0.126138 5.33474 0.275552 5.694 0.540796 5.95915C0.805947 6.2244 1.16521 6.37381 1.5402 6.37495ZM0.975 1.84008C0.976138 1.69057 1.036 1.54741 1.14177 1.44165C1.24755 1.33587 1.3907 1.27601 1.54021 1.27487H4.65971C4.80921 1.27601 4.95237 1.33587 5.05814 1.44165C5.16391 1.54742 5.22377 1.69058 5.22491 1.84008V4.95958C5.22377 5.10909 5.16391 5.25225 5.05814 5.35801C4.95236 5.46379 4.80921 5.52365 4.65971 5.52478H1.54021C1.3907 5.52365 1.24754 5.46379 1.14177 5.35801C1.036 5.25223 0.976139 5.10908 0.975 4.95958V1.84008Z" fill="#5B5858"/>
<path d="M11.4605 0.425049H8.34098C7.96599 0.426187 7.60673 0.575601 7.34158 0.840844C7.07633 1.106 6.92692 1.46525 6.92578 1.84025V4.95975C6.92692 5.33475 7.07633 5.694 7.34158 5.95916C7.60673 6.2244 7.96599 6.37381 8.34098 6.37495H11.4605C11.8355 6.37381 12.1947 6.2244 12.4599 5.95916C12.7251 5.694 12.8745 5.33475 12.8757 4.95975V1.84025C12.8745 1.46525 12.7251 1.106 12.4599 0.840844C12.1947 0.575596 11.8355 0.42619 11.4605 0.425049ZM12.0257 4.95992C12.0245 5.10943 11.9647 5.25259 11.8589 5.35835C11.7531 5.46413 11.61 5.52399 11.4605 5.52513H8.34098C8.19147 5.52399 8.04831 5.46413 7.94255 5.35835C7.83677 5.25257 7.77691 5.10942 7.77577 4.95992V1.84042C7.77691 1.69091 7.83677 1.54775 7.94255 1.44199C8.04832 1.33621 8.19147 1.27635 8.34098 1.27521H11.4605C11.61 1.27635 11.7531 1.33621 11.8589 1.44199C11.9647 1.54777 12.0245 1.69092 12.0257 1.84042V4.95992Z" fill="#5B5858"/>
<path d="M11.4605 7.2251H8.34098C7.96599 7.22624 7.60673 7.37565 7.34158 7.64089C7.07633 7.90605 6.92692 8.2653 6.92578 8.6403V11.7598C6.92692 12.1348 7.07633 12.4941 7.34158 12.7592C7.60673 13.0245 7.96599 13.1739 8.34098 13.175H11.4605C11.8355 13.1739 12.1947 13.0245 12.4599 12.7592C12.7251 12.4941 12.8745 12.1348 12.8757 11.7598V8.6403C12.8745 8.2653 12.7251 7.90605 12.4599 7.64089C12.1947 7.37564 11.8355 7.22624 11.4605 7.2251ZM12.0257 11.76C12.0245 11.9095 11.9647 12.0526 11.8589 12.1584C11.7531 12.2642 11.61 12.324 11.4605 12.3252H8.34098C8.19147 12.324 8.04831 12.2642 7.94255 12.1584C7.83677 12.0526 7.77691 11.9095 7.77577 11.76V8.64047C7.77691 8.49096 7.83677 8.3478 7.94255 8.24204C8.04832 8.13626 8.19147 8.0764 8.34098 8.07526H11.4605C11.61 8.0764 11.7531 8.13626 11.8589 8.24204C11.9647 8.34781 12.0245 8.49097 12.0257 8.64047V11.76Z" fill="#5B5858"/>
<path d="M1.5402 13.175H4.6597C5.0347 13.1739 5.39395 13.0245 5.65911 12.7592C5.92435 12.4941 6.07376 12.1348 6.0749 11.7598V8.6403C6.07376 8.2653 5.92435 7.90605 5.65911 7.64089C5.39395 7.37564 5.0347 7.22624 4.6597 7.2251H1.5402C1.16521 7.22624 0.805947 7.37565 0.540796 7.64089C0.275547 7.90605 0.126141 8.2653 0.125 8.6403V11.7598C0.126138 12.1348 0.275552 12.4941 0.540796 12.7592C0.805947 13.0245 1.16521 13.1739 1.5402 13.175ZM0.975 8.64013C0.976138 8.49062 1.036 8.34746 1.14177 8.2417C1.24755 8.13592 1.3907 8.07606 1.54021 8.07492H4.65971C4.80921 8.07606 4.95237 8.13592 5.05814 8.2417C5.16391 8.34747 5.22377 8.49063 5.22491 8.64013V11.7596C5.22377 11.9091 5.16391 12.0523 5.05814 12.1581C4.95236 12.2638 4.80921 12.3237 4.65971 12.3248H1.54021C1.3907 12.3237 1.24754 12.2638 1.14177 12.1581C1.036 12.0523 0.976139 11.9091 0.975 11.7596V8.64013Z" fill="#5B5858"/>
</svg>
