<svg width="98" height="131" viewBox="0 0 98 131" fill="none" xmlns="http://www.w3.org/2000/svg">
<path d="M76.9729 15.3259L76.9731 15.3271H70.9722C68.8028 11.62 64.8522 9.08295 60.2678 9.00748C58.6897 4.14932 54.1754 0.6 48.7889 0.6C43.4108 0.6 38.8885 4.149 37.3142 9.00749C32.7265 9.08309 28.7795 11.6236 26.6171 15.3271H20.1166C9.35374 15.3271 0.6 24.0809 0.6 34.8437V110.883C0.6 121.642 9.35369 130.4 20.1166 130.4H77.4718C88.2347 130.4 96.9884 121.642 96.9884 110.883L96.9893 34.8461V34.8458C96.9808 24.0795 88.2312 15.3259 77.4644 15.3259H76.9729ZM48.7883 6.85829C50.5673 6.85829 52.1079 7.7079 53.1683 9.001H44.4057C45.4687 7.70777 47.0095 6.85829 48.7883 6.85829ZM90.7247 110.887C90.7247 118.196 84.7719 124.145 77.4618 124.145L20.1113 124.146C12.8063 124.146 6.85685 118.198 6.85685 110.887V34.8472C6.85685 27.5375 12.8053 21.5892 20.1113 21.5892H24.8314C24.8288 21.6239 24.8272 21.6599 24.8272 21.6968C24.8272 28.7068 30.5093 34.3889 37.5193 34.3889H60.0545C67.0645 34.3889 72.7465 28.7068 72.7465 21.6968C72.7465 21.6599 72.745 21.6239 72.7424 21.5892H77.4624C84.7688 21.5892 90.7252 27.5378 90.7252 34.8472L90.7247 110.887Z" fill="#5B5858" stroke="#5B5858" stroke-width="0.8"/>
<path d="M74.7254 50.4217L42.8276 78.1289L23.6944 62.7976C22.2913 61.6729 20.2395 61.7054 18.8604 62.9507C17.3487 64.3371 17.2401 66.6876 18.6228 68.2078L38.8605 90.3968C38.9449 90.498 39.0582 90.6065 39.1584 90.6993C41.4115 92.8198 44.9554 92.7149 47.0721 90.4618L47.1807 90.3486L79.8031 55.7021C81.0689 54.3473 81.1412 52.2147 79.8959 50.78C78.5661 49.2553 76.2516 49.0902 74.7241 50.42L74.7254 50.4217Z" fill="#5B5858"/>
</svg>
