                        <svg  width="25px" xmlns="http://www.w3.org/2000/svg" fill="#5B5C65"
                            viewBox="0 0 512 512">
                            <path
                                d="M316.3 195.7a10.7 10.7 0 00-15 15 64 64 0 01-90.5 90.5 10.7 10.7 0 00-15.1 15.1 85.4 85.4 0 00120.7-120.7zM270.9 172.1a85.4 85.4 0 00-98.7 98.7 10.7 10.7 0 0021-3.7 64 64 0 0174-74 10.6 10.6 0 103.7-21z" />
                            <path
                                d="M509.5 249.1c-2.4-2.9-60.2-70.2-139.8-111.4a10.7 10.7 0 00-9.7 19c61.3 31.7 110.3 81.2 127 99.3-25.4 27.5-125.5 128-231 128a246 246 0 01-107.3-25.7 10.6 10.6 0 10-9.2 19.2A266.7 266.7 0 00256 405.3c131.4 0 248.6-136.6 253.5-142.4 3.4-4 3.3-9.8 0-13.8zM326 119a220.3 220.3 0 00-70-12.3C124.6 106.7 7.4 243.3 2.5 249c-3.1 3.7-3.4 9-.6 13a396 396 0 0097.9 92.8 10.6 10.6 0 0014.8-3c3.2-5 1.9-11.6-3-14.8a390.1 390.1 0 01-87.2-80.5C49 229.9 149.7 128 256 128c19.9 0 41.1 3.7 63.2 11.2 5.6 2 11.6-1.1 13.5-6.7a10.6 10.6 0 00-6.7-13.6z" />
                            <path
                                d="M444.9 67.1c-4.2-4.1-11-4.1-15.1 0L67 429.8a10.7 10.7 0 0015.1 15L444.9 82.3c4.1-4.1 4.1-11 0-15z" />
                        </svg>