<svg width="12" height="13" viewBox="0 0 12 13" fill="none" xmlns="http://www.w3.org/2000/svg">
<path d="M3.42079 7.50689L8.11363 2.5531L10.0922 4.64158L5.39912 9.59513L3.17383 9.85596L3.42079 7.50689Z" fill="#0E9CAF"/>
<path d="M8.71289 1.91996L9.52193 1.06637C9.65339 0.928451 9.8313 0.851135 10.0166 0.851135C10.2019 0.851135 10.3798 0.928451 10.5112 1.06637L11.5001 2.11059C11.6311 2.24917 11.7045 2.43696 11.7045 2.63272C11.7045 2.82848 11.6311 3.01618 11.5001 3.15485L10.6915 4.00844L8.71289 1.91996Z" fill="#0E9CAF"/>
<path d="M10.8992 7.23384C10.7923 7.23384 10.6897 7.27867 10.6141 7.35846C10.5386 7.43824 10.4961 7.54652 10.4961 7.65936V11.489C10.4961 11.6019 10.4536 11.7102 10.378 11.79C10.3024 11.8697 10.1999 11.9146 10.093 11.9146H1.62734C1.52044 11.9146 1.41786 11.8697 1.34228 11.79C1.26669 11.7102 1.22422 11.6019 1.22422 11.489V2.55311C1.22422 2.44027 1.26669 2.33199 1.34228 2.25221C1.41786 2.17242 1.52044 2.12759 1.62734 2.12759H5.25547C5.39953 2.12759 5.53261 2.04648 5.6046 1.91483C5.67658 1.78319 5.67658 1.62095 5.6046 1.48931C5.53261 1.35767 5.39953 1.27655 5.25547 1.27655H1.62734C1.30655 1.27655 0.998998 1.41104 0.772143 1.6504C0.545384 1.88985 0.417969 2.2145 0.417969 2.55311V11.489C0.417969 11.8277 0.545384 12.1523 0.772143 12.3918C0.998992 12.6311 1.30655 12.7656 1.62734 12.7656H10.093C10.4138 12.7656 10.7213 12.6311 10.9482 12.3918C11.1749 12.1523 11.3023 11.8277 11.3023 11.489V7.65936C11.3023 7.54652 11.2599 7.43824 11.1843 7.35846C11.1087 7.27867 11.0061 7.23384 10.8992 7.23384Z" fill="#0E9CAF"/>
</svg>
