<svg width="18" height="17" viewBox="0 0 18 17" fill="none" xmlns="http://www.w3.org/2000/svg">
<path d="M15.9927 7.10748H14.6423C14.3715 7.10748 14.1516 6.95856 14.0466 6.70812C13.9451 6.46098 13.9958 6.19702 14.1888 6.00748L15.1433 5.05296C15.5833 4.61296 15.5833 3.89538 15.1433 3.45205L14.3479 2.66008C13.9214 2.23027 13.1768 2.23027 12.7503 2.66008L11.7925 3.6146C11.6368 3.77371 11.4642 3.80415 11.3457 3.80415C11.1798 3.80415 11.014 3.73982 10.8922 3.62479C10.8007 3.54008 10.6924 3.39116 10.6924 3.15767V1.80721C10.6924 1.18442 10.1881 0.676758 9.56198 0.676758H8.44171C7.81546 0.676758 7.3077 1.18439 7.3077 1.80721V3.15767C7.3077 3.56379 6.97943 3.80415 6.65788 3.80415C6.53941 3.80415 6.3668 3.77371 6.21113 3.6146L5.25328 2.66008C4.82679 2.23027 4.08219 2.23027 3.6557 2.66008L2.86027 3.45205C2.64702 3.6653 2.52854 3.94963 2.52854 4.25078C2.52854 4.55536 2.64701 4.83969 2.86027 5.05293L3.81479 6.00745C4.00766 6.197 4.05848 6.46096 3.95695 6.70808C3.85199 6.95853 3.62868 7.10745 3.36129 7.10745H2.01083C1.38459 7.10745 0.876953 7.61521 0.876953 8.23803V9.36172C0.876953 9.98439 1.38459 10.4922 2.01083 10.4922H3.36129C3.62868 10.4922 3.85211 10.6411 3.95695 10.8915C4.05848 11.1386 4.00766 11.4026 3.81479 11.5922L2.86027 12.5467C2.64702 12.7599 2.52854 13.0443 2.52854 13.3454C2.52854 13.65 2.64701 13.9343 2.86027 14.1476L3.6557 14.9395C4.08219 15.3694 4.82679 15.3694 5.25328 14.9395L6.21113 13.985C6.3668 13.8259 6.5394 13.7955 6.65788 13.7955C6.9794 13.7955 7.3077 14.0359 7.3077 14.442V15.7924C7.3077 16.4152 7.81546 16.9229 8.44158 16.9229H9.56186C10.1881 16.9229 10.6924 16.4152 10.6924 15.7924V14.442C10.6924 14.0358 11.0242 13.7955 11.3457 13.7955C11.4641 13.7955 11.6368 13.8259 11.7924 13.985L12.747 14.9395C13.1768 15.3694 13.9215 15.3694 14.3479 14.9395L15.1433 14.1476C15.3565 13.9343 15.475 13.65 15.475 13.3454C15.475 13.0442 15.3565 12.7599 15.1433 12.5467L14.1888 11.5922C13.9959 11.4026 13.9451 11.1387 14.0466 10.8915C14.1515 10.6411 14.3715 10.4922 14.6423 10.4922H15.9927C16.6155 10.4922 17.1232 9.98442 17.1232 9.36172V8.23803C17.1232 7.61524 16.6155 7.10745 15.9927 7.10745L15.9927 7.10748ZM9.0002 12.1845C7.13522 12.1845 5.61565 10.6647 5.61565 8.79991C5.61565 6.93494 7.13538 5.41536 9.0002 5.41536C10.8685 5.41536 12.3847 6.93509 12.3847 8.79991C12.3847 10.6649 10.8684 12.1845 9.0002 12.1845Z" fill="#5B5858"/>
</svg>
