<svg width="305" height="378" viewBox="0 0 305 378" fill="none" xmlns="http://www.w3.org/2000/svg">
<path d="M245.281 377.882H59.5859C26.7301 377.882 0 353.987 0 324.616V53.266C0 23.895 26.7301 0 59.5859 0H245.281C278.137 0 304.867 23.895 304.867 53.266V324.616C304.863 353.987 278.134 377.882 245.277 377.882H245.281ZM59.5859 19.442C38.7208 19.442 21.7487 34.618 21.7487 53.266V324.616C21.7487 343.264 38.7253 358.44 59.5859 358.44H245.281C266.146 358.44 283.118 343.264 283.118 324.616L283.123 53.266C283.123 34.618 266.146 19.442 245.286 19.442H59.5859Z" fill="#5B5858"/>
<path d="M222.458 152.392C219.81 150.025 215.519 150.025 212.866 152.392L159.194 200.372V74.7021C159.194 71.3544 156.157 68.6357 152.408 68.6357C148.663 68.6357 145.621 71.3505 145.621 74.7021V200.382L91.9487 152.402C89.3006 150.035 85.0096 150.035 82.3571 152.402C79.7091 154.769 79.7091 158.605 82.3571 160.976L147.209 218.949C147.326 219.078 147.453 219.207 147.589 219.328C148.908 220.508 150.647 221.102 152.382 221.102H152.4H152.417C154.152 221.102 155.887 220.508 157.211 219.328C157.351 219.203 157.473 219.074 157.591 218.949L222.442 160.976C225.104 158.601 225.104 154.765 222.46 152.394L222.458 152.392Z" fill="#5B5858"/>
<path d="M73.783 309.972H73.0751C71.1699 309.972 69.4439 310.617 68.0717 311.835C66.7128 313.058 65.9961 314.597 65.9961 316.675C65.9961 318.378 66.7083 319.921 68.0804 321.148C69.4394 322.359 71.1698 323.003 73.075 323.003H73.7829C75.6924 323.003 77.4229 322.359 78.7687 321.144C80.1365 319.929 80.8531 318.382 80.8531 316.296C80.8531 314.589 80.1321 313.042 78.7774 311.832C77.4228 310.617 75.6924 309.972 73.7829 309.972H73.783Z" fill="#5B5858"/>
<path d="M99.768 320.922L112.191 306.715L124.727 320.801C125.96 322.309 127.887 323.137 130.133 323.137C131.784 323.137 133.279 322.52 134.45 321.344C135.52 320.27 136.084 318.977 136.084 317.598C136.084 316.27 135.621 315.055 134.743 314.098L120.074 297.977L134.852 281.668C135.617 280.723 136.01 279.598 136.01 278.332C136.01 276.898 135.364 275.582 134.136 274.512C131.597 272.34 126.864 272.578 124.985 275.027L112.575 289.222L100.261 275.234C99.0638 273.758 97.2985 272.945 95.2927 272.945C92.9681 272.945 91.5042 273.82 90.6827 274.551C89.5029 275.598 88.8911 276.938 88.8911 278.422C88.8911 279.77 89.3105 280.957 90.2238 282.047L104.753 298.039L90.0046 314.25C89.1787 315.234 88.7461 316.433 88.7461 317.723C88.7461 319.16 89.371 320.476 90.5421 321.531C91.7132 322.586 93.2426 323.137 94.938 323.137C96.2009 323.129 98.058 322.758 99.7666 320.922L99.768 320.922Z" fill="#5B5858"/>
<path d="M147.255 322.812H172.267C173.971 322.812 175.518 322.257 176.729 321.21C177.638 320.433 178.114 319.445 178.376 318.386C179.071 319.164 179.884 319.777 180.889 320.191C186.469 322.347 192.529 323.445 198.901 323.445C205.032 323.445 210.11 322.085 214.003 319.386C218.032 316.574 220.068 312.863 220.068 308.366C220.068 303.655 218.071 299.968 214.143 297.413C212.491 296.331 210.616 295.452 208.541 294.8C206.662 294.206 204.739 293.687 202.76 293.241C200.868 292.819 199.019 292.417 197.236 292.042C195.659 291.706 194.243 291.28 192.971 290.753C190.197 289.659 190.197 288.468 190.197 287.897C190.197 286.593 190.808 285.714 192.233 284.964C194.086 284.007 196.563 283.519 199.605 283.519C203.17 283.519 206.351 283.956 209.034 284.8C210.446 285.261 211.551 285.472 212.543 285.472C213.452 285.472 215.183 285.218 216.62 283.546C217.542 282.491 218.032 281.276 218.032 280.03C218.032 277.577 216.559 275.694 214.003 274.878C209.441 273.39 204.363 272.632 198.905 272.632C192.491 272.632 187.233 274.151 183.275 277.14C179.46 280.042 177.524 283.808 177.524 288.339C177.524 292.624 179.56 296.272 183.458 298.917C185.11 299.991 186.993 300.881 189.064 301.553C190.957 302.163 192.853 302.717 194.789 303.194C196.681 303.663 198.534 304.1 200.378 304.503C202.021 304.862 203.454 305.268 204.643 305.706C205.932 306.206 207.474 307.006 207.474 307.983C207.474 309.311 207.474 312.424 198.271 312.424C195.501 312.424 193.071 312.182 191.048 311.702C188.955 311.21 187.461 310.795 186.539 310.432C185.106 309.866 183.865 309.596 182.742 309.596C181.632 309.596 180.01 309.897 178.59 311.342C177.878 312.065 177.502 312.917 177.275 313.807C177.1 313.6 177 313.354 176.786 313.163C175.562 312.065 174.011 311.487 172.276 311.487H152.368V278.639C152.368 277.1 151.716 275.705 150.502 274.619C148.042 272.412 143.855 272.436 141.487 274.654C140.307 275.748 139.695 277.123 139.695 278.643V316.057C139.695 317.889 140.464 319.541 141.911 320.838C143.353 322.139 145.21 322.811 147.255 322.811L147.255 322.812Z" fill="#5B5858"/>
</svg>
