<svg width="25px" xmlns="http://www.w3.org/2000/svg" fill="#5B5C65"
                            viewBox="0 0 512 512">
                            <path
                                d="M510.1 250c-4-6-101-143.3-254.1-143.3C124.6 106.7 7.4 243.3 2.5 249c-3.3 4-3.3 9.8 0 13.8 5 5.8 122 142.4 253.5 142.4S504.5 268.7 509.5 263c3-3.7 3.3-9 .6-13zM256 384C150.6 384 50.4 283.5 25 256c25.4-27.5 125.5-128 231-128 123.3 0 210.3 100.3 231.5 127.4C463 282.1 362.3 384 256 384z" />
                            <path
                                d="M256 170.7a85.4 85.4 0 10.2 170.8 85.4 85.4 0 00-.2-170.8zm0 149.3a64 64 0 11.2-128.2A64 64 0 01256 320z" />
                        </svg>