<svg width="61" height="35" viewBox="0 0 61 35" fill="none" xmlns="http://www.w3.org/2000/svg">
<g clip-path="url(#clip0_136_104)">
<path d="M1.4954 5H59.5046C60.3146 5 61 3.85417 61 2.5C61 1.14583 60.3146 0 59.5046 0H1.4954C0.685393 0 0 1.14583 0 2.5C0 3.85417 0.685393 5 1.4954 5Z" fill="#5B5858"/>
<path d="M59.5008 15H1.49531C0.685349 15 0 16.1458 0 17.5C0 18.8542 0.685349 20 1.49531 20H59.5008C60.3107 20 60.9961 18.8542 60.9961 17.5C61.0584 16.1458 60.373 15 59.5008 15Z" fill="#5B5858"/>
<mask id="mask0_136_104" style="mask-type:alpha" maskUnits="userSpaceOnUse" x="0" y="30" width="61" height="5">
<path d="M59.5046 30H1.4954C0.685393 30 0 31.1458 0 32.5C0 33.8542 0.685393 35 1.4954 35H59.5046C60.3146 35 61 33.8542 61 32.5C61 31.1458 60.3769 30 59.5046 30Z" fill="white"/>
</mask>
<g mask="url(#mask0_136_104)">
<path d="M59.5046 30H1.4954C0.685393 30 0 31.1458 0 32.5C0 33.8542 0.685393 35 1.4954 35H59.5046C60.3146 35 61 33.8542 61 32.5C61 31.1458 60.3769 30 59.5046 30Z" fill="#5B5858"/>
<path d="M59.5046 21H1.4954V39H59.5046V21ZM1.4954 21C-3.4347 21 -6.22887 24.3653 -7.27974 26.1222C-8.49185 28.1486 -9 30.4118 -9 32.5H9C9 33.2341 8.83455 34.2473 8.16764 35.3622C7.66197 36.2076 5.6155 39 1.4954 39V21ZM-9 32.5C-9 34.5882 -8.49185 36.8514 -7.27975 38.8778C-6.22889 40.6346 -3.43473 44 1.4954 44V26C5.61552 26 7.66199 28.7924 8.16765 29.6378C8.83455 30.7527 9 31.7659 9 32.5H-9ZM1.4954 44H59.5046V26H1.4954V44ZM59.5046 44C64.4347 44 67.2289 40.6346 68.2797 38.8778C69.4919 36.8514 70 34.5882 70 32.5H52C52 31.7659 52.1655 30.7527 52.8324 29.6378C53.338 28.7924 55.3845 26 59.5046 26V44ZM70 32.5C70 30.5715 69.5777 28.3142 68.3611 26.2205C67.2016 24.225 64.3548 21 59.5046 21V39C55.5267 39 53.4276 36.3479 52.7978 35.2639C52.1108 34.0817 52 33.0743 52 32.5H70Z" fill="#5B5858"/>
</g>
</g>
<defs>
<clipPath id="clip0_136_104">
<rect width="61" height="35" fill="white"/>
</clipPath>
</defs>
</svg>
