<svg width="5" height="16" viewBox="0 0 5 16" fill="none" xmlns="http://www.w3.org/2000/svg">
<path d="M4.5781 2.07811C4.5781 3.22585 3.64772 4.15622 2.49999 4.15622C1.35225 4.15622 0.421875 3.22585 0.421875 2.07811C0.421875 0.930376 1.35225 0 2.49999 0C3.64772 0 4.5781 0.930376 4.5781 2.07811ZM2.49999 11.0437C1.35225 11.0437 0.421875 11.974 0.421875 13.1218C0.421875 14.2695 1.35225 15.1999 2.49999 15.1999C3.64772 15.1999 4.5781 14.2695 4.5781 13.1218C4.5781 11.974 3.64772 11.0437 2.49999 11.0437ZM2.49999 5.52173C1.35225 5.52173 0.421875 6.4521 0.421875 7.59984C0.421875 8.74757 1.35225 9.67795 2.49999 9.67795C3.64772 9.67795 4.5781 8.74757 4.5781 7.59984C4.5781 6.4521 3.64772 5.52173 2.49999 5.52173Z" fill="#5B5858"/>
</svg>
