<svg width="30" height="30" viewBox="0 0 30 30" fill="none" xmlns="http://www.w3.org/2000/svg">
<path d="M10.9277 28.8001C10.8292 28.8001 10.7308 28.7762 10.6408 28.7275C10.4475 28.6225 10.3276 28.4198 10.3276 28.2002V14.9671L1.63772 4.6495C0.323666 3.08957 0.540848 1.96699 0.788117 1.4364C1.21823 0.510069 2.30608 0 3.8493 0H26.1523C27.6956 0 28.7834 0.510069 29.2141 1.4364C29.4608 1.96673 29.6786 3.08937 28.3645 4.6495L19.6741 14.9671V22.9149C19.6741 23.1182 19.5709 23.3072 19.4005 23.4183L11.2537 28.7036C11.1547 28.7679 11.0416 28.8001 10.9277 28.8001ZM3.84955 1.19989C2.83003 1.19989 2.09213 1.47712 1.87619 1.94221C1.66123 2.40366 1.90913 3.10918 2.5554 3.87659L11.3867 14.3619C11.4779 14.4699 11.5277 14.6067 11.5277 14.7482V27.0957L18.4747 22.589L18.4745 14.7482C18.4745 14.6066 18.5243 14.4698 18.6155 14.3619L27.4468 3.87664C28.0931 3.10923 28.3408 2.4043 28.1261 1.94226C27.9101 1.47719 27.1722 1.19994 26.1527 1.19994L3.84955 1.19989Z" fill="#5B5858" stroke="#5B5858"/>
</svg>
