<svg width="64" height="64" viewBox="0 0 64 64" fill="none" xmlns="http://www.w3.org/2000/svg">
<path d="M32 0C14.3551 0 0 14.3551 0 32C0 49.6449 14.3551 64 32 64C49.6449 64 64 49.6449 64 32C64 14.3551 49.6449 0 32 0ZM32 61.3079C24.9162 61.3079 18.413 58.7818 13.3402 54.5831C15.4024 48.857 20.9059 44.9247 27.0331 44.9247H36.8727C43.0286 44.9247 48.5501 48.8758 50.605 54.6279C45.5412 58.7989 39.0587 61.3079 32 61.3079ZM52.7318 52.6959C50.0298 46.4476 43.7914 42.2326 36.8736 42.2326H27.0331C20.1467 42.2326 13.928 46.426 11.2206 52.6457C5.95311 47.344 2.69209 40.0458 2.69209 32C2.69209 15.8394 15.8394 2.69209 32 2.69209C48.1606 2.69209 61.3079 15.8394 61.3079 32C61.3079 40.0709 58.028 47.3907 52.7318 52.6959Z" fill="#168F59"/>
<path d="M31.9997 13.6377C24.9635 13.6377 19.2383 19.362 19.2383 26.3991C19.2383 33.4362 24.9626 39.1605 31.9997 39.1605C39.0368 39.1605 44.7611 33.4362 44.7611 26.3991C44.7611 19.362 39.0359 13.6377 31.9997 13.6377ZM31.9997 36.4684C26.4477 36.4684 21.9304 31.9511 21.9304 26.3991C21.9304 20.8471 26.4477 16.3298 31.9997 16.3298C37.5517 16.3298 42.069 20.8471 42.069 26.3991C42.069 31.9511 37.5517 36.4684 31.9997 36.4684Z" fill="#168F59"/>
</svg>
