<svg width="101" height="101" viewBox="0 0 101 101" fill="none" xmlns="http://www.w3.org/2000/svg">
<path d="M53.9862 38.561V73.2664C53.9862 75.3959 52.2611 77.1228 50.1298 77.1228C47.9985 77.1228 46.2734 75.3968 46.2734 73.2664V38.561C46.2734 36.4315 47.9985 34.7046 50.1298 34.7046C52.2611 34.7046 53.9862 36.4306 53.9862 38.561V38.561Z" fill="#5B5858"/>
<path d="M53.9862 24.1005V26.0282C53.9862 28.1577 52.2611 29.8846 50.1298 29.8846C47.9985 29.8846 46.2734 28.1587 46.2734 26.0282V24.1005C46.2734 21.9711 47.9985 20.2441 50.1298 20.2441C52.2611 20.2441 53.9862 21.9701 53.9862 24.1005Z" fill="#5B5858"/>
<path d="M50.1301 0C22.4897 0 0 22.4881 0 50.1301C0 77.7728 22.489 100.26 50.1301 100.26C77.7712 100.26 100.26 77.7721 100.26 50.1301C100.26 22.4874 77.7712 0 50.1301 0V0ZM50.1301 92.5479C26.7406 92.5479 7.71232 73.5191 7.71232 50.1301C7.71232 26.7411 26.7411 7.71232 50.1301 7.71232C73.5191 7.71232 92.5478 26.7411 92.5478 50.1301C92.5478 73.5191 73.5191 92.5479 50.1301 92.5479V92.5479Z" fill="#5B5858"/>
</svg>
