                        <svg width="30" height="29" viewBox="0 0 30 29"  xmlns="http://www.w3.org/2000/svg" fill="#5B5C65">
                            <path
                                d="M25.4473 15.8679C28.2519 14.0808 28.9551 10.1502 27.0152 7.10607C25.0755 4.06241 21.2158 3.04026 18.4112 4.82733C16.0982 6.30174 15.2189 9.23269 16.0685 11.9224L7.84453 17.1641L7.22694 16.1946C6.83401 15.578 6.01273 15.3961 5.39651 15.7891L2.58579 17.5803C1.96922 17.9733 1.78736 18.7942 2.18037 19.4104L2.79824 20.3804C2.18343 20.7737 2.00216 21.5937 2.39455 22.2094L2.92735 23.0459C3.32036 23.6621 4.14129 23.844 4.75778 23.4514L18.0262 14.9949C20.1062 16.9011 23.1342 17.3423 25.4473 15.8679ZM3.16743 18.4935L5.97815 16.7022C6.09096 16.6303 6.24112 16.6636 6.31301 16.7764L6.93095 17.746L3.71076 19.7983L3.09282 18.8286C3.02136 18.7155 3.05462 18.5654 3.16743 18.4935ZM4.17551 22.5377C4.0627 22.6096 3.91254 22.5764 3.84065 22.4635L3.30742 21.6273C3.23553 21.5145 3.26879 21.3643 3.3816 21.2925L16.4807 12.9441C16.5899 13.1625 16.7085 13.3781 16.843 13.589C16.9772 13.7996 17.1229 13.9983 17.2742 14.1897L4.17551 22.5377ZM17.7563 13.0067C16.1376 10.4668 16.6923 7.20693 18.9932 5.74056C21.2942 4.27418 24.483 5.14774 26.1019 7.68807C27.7209 10.2284 27.1663 13.4879 24.8654 14.9543C22.5641 16.4206 19.3749 15.5469 17.7563 13.0067Z"
                                fill="black" />
                            <path
                                d="M25.2579 8.22623C23.9935 6.24219 21.4715 5.57996 19.636 6.74972C17.8005 7.91947 17.3361 10.4849 18.6002 12.4689C19.8646 14.4529 22.3865 15.1155 24.2221 13.9454C26.0579 12.7761 26.5221 10.2098 25.2579 8.22623ZM19.5134 11.8869C18.5701 10.4066 18.8863 8.51165 20.218 7.66294C21.5501 6.81431 23.401 7.32787 24.3447 8.80823C25.2881 10.2885 24.9722 12.1835 23.6401 13.0322C22.3083 13.8812 20.4572 13.3672 19.5134 11.8869Z"
                                fill="black" />
                        </svg>