<svg width="67" height="96" viewBox="0 0 67 96" fill="none" xmlns="http://www.w3.org/2000/svg">
<path d="M16.2678 70.2634L16.2685 70.2586C17.0865 64.8117 15.1717 59.3263 11.1276 55.4558L11.1296 55.4498L10.8877 55.23C7.45407 52.1112 4.7544 48.3275 2.96728 44.132C1.18125 39.9371 0.347826 35.426 0.52281 30.8996C0.912244 23.1023 4.26749 15.707 9.95937 10.1149C15.653 4.52197 23.2888 1.12034 31.4248 0.559599C37.4475 0.204942 43.4547 1.43821 48.7969 4.12326C54.1394 6.8086 58.6122 10.8435 61.7315 15.788C64.8504 20.7329 66.4991 26.3994 66.5 32.1748C66.4936 36.4919 65.5706 40.7621 63.7864 44.7268L63.7864 44.7269C62.003 48.6917 59.395 52.2684 56.122 55.2371L55.958 55.3859V55.3902C54.1371 57.1208 52.7843 59.731 51.9145 62.4891C51.0169 65.3358 50.6154 68.3983 50.7683 70.9329L50.7687 70.9387C50.8251 71.7214 50.4012 72.477 49.6609 72.8627L49.3919 73.0029V73.3062V84.3719C49.3919 84.9235 49.1637 85.4573 48.7503 85.8539C48.3363 86.251 47.7698 86.4777 47.1752 86.4777H46.3644H45.8644V86.9777V93.3942C45.8644 93.9455 45.6365 94.4785 45.223 94.876C44.808 95.2735 44.2421 95.5 43.6476 95.5H23.3487C22.7543 95.5 22.1884 95.2735 21.7733 94.8759C21.3598 94.4786 21.1319 93.9456 21.1319 93.3942V86.9777V86.4777H20.6319H19.8212C19.2266 86.4777 18.6601 86.251 18.246 85.8538C17.8326 85.4574 17.6044 84.9237 17.6044 84.3719V72.7902V72.4903L17.3399 72.3491C16.5521 71.9287 16.1348 71.0936 16.2678 70.2634ZM44.9607 73.5889V73.0973L44.4692 73.0889L22.5474 72.7176L22.0389 72.709V73.2175V81.7653V82.2653L22.5389 82.2653L44.4607 82.2646L44.9607 82.2646V81.7646V73.5889ZM40.933 91.2892H41.4335L41.433 90.7887L41.4293 86.9765L41.4288 86.477H40.9293H26.0664H25.5664V86.977V90.7892V91.2892H26.0664H40.933ZM4.9519 31.0429L4.93203 31.4384L4.93833 31.4403C4.70399 39.2745 7.98626 46.8324 13.9554 52.1879C18.4438 56.3132 20.9484 62.0309 20.8831 67.9828L20.8775 68.4883H21.3794H21.383H21.3838L30.774 68.6467L31.2824 68.6553V68.1468V42.1488V41.6488H30.7824H28.4039C27.6016 41.6488 26.8708 41.2386 26.4793 40.5884C26.0894 39.9408 26.0893 39.1458 26.4794 38.4974C26.8711 37.8472 27.6017 37.4371 28.4039 37.4371H30.7824H31.2824V36.9371V34.4674C31.2824 32.4489 32.4045 30.5738 34.2444 29.5547C36.0863 28.5346 38.3588 28.5346 40.2007 29.5547C42.0406 30.5738 43.1632 32.4487 43.1634 34.4668C43.1614 36.2774 42.4448 38.0242 41.1514 39.3543L41.1512 39.3545C39.8579 40.6859 38.0829 41.5013 36.1816 41.6319L35.7159 41.6639V42.1308V68.2377V68.7294L36.2075 68.7376L45.8348 68.8989L46.315 68.9069L46.3423 68.4274C46.6678 62.7119 48.9045 55.9605 53.0632 52.1874C58.8091 46.9963 62.07 39.7538 62.0662 32.1719C62.0624 24.5897 58.7945 17.3498 53.0431 12.163C47.2924 6.97646 39.5689 4.30069 31.6981 4.7621L31.6981 4.76208L31.693 4.76243C24.6649 5.24723 18.0624 8.18522 13.1335 13.0257L13.1335 13.0258C8.20485 17.867 5.29167 24.2761 4.9519 31.0429ZM36.2155 37.378H36.7155V37.2546C37.901 36.8327 38.727 35.7365 38.7286 34.4682V34.4676C38.7286 33.6387 38.0344 33.0022 37.222 33.0022C36.4098 33.0022 35.7155 33.6387 35.7155 34.4676V36.878H36.1622L36.2154 37.378H36.2155Z" fill="#168F59" stroke="white"/>
</svg>
