<svg width="72" height="98" viewBox="0 0 72 98" fill="none" xmlns="http://www.w3.org/2000/svg">
<path d="M2.11748 0C0.95125 0.00295434 0.00075631 1.07243 0 2.11748V95.2949C0 96.4035 1.0089 97.4124 2.11748 97.4124H55.0592C55.6116 97.4124 56.1597 97.1768 56.5482 96.7838L71.3715 81.9605C71.7644 81.572 71.9956 81.024 72 80.4715V2.11782C72 1.0092 70.9911 0.00034008 69.8825 0.00034008L2.11748 0ZM4.23496 4.23496H67.765V78.3533H55.0592C53.7726 78.3533 52.9549 79.4878 52.9417 80.4708V93.1766H4.23534L4.23496 4.23496ZM15.8825 14.8233C12.9836 14.8233 10.5883 17.2185 10.5883 20.1175C10.5883 23.0164 12.9836 25.4116 15.8825 25.4116C18.7814 25.4116 21.1767 23.0164 21.1767 20.1175C21.1767 17.2185 18.7814 14.8233 15.8825 14.8233V14.8233ZM30.7058 18C29.5359 18 28.5883 18.9483 28.5883 20.1175C28.5883 21.2874 29.5367 22.2349 30.7058 22.2349H59.2943C60.4643 22.2349 61.4118 21.2866 61.4118 20.1175C61.4118 18.9476 60.4635 18 59.2943 18H30.7058ZM15.8825 19.0591C16.4926 19.0591 16.9416 19.5082 16.9416 20.1183C16.9416 20.7283 16.4926 21.1774 15.8825 21.1774C15.2724 21.1774 14.8234 20.7283 14.8234 20.1183C14.8234 19.5082 15.2724 19.0591 15.8825 19.0591ZM15.8825 31.7649C12.9836 31.7649 10.5883 34.1602 10.5883 37.0591C10.5883 39.9581 12.9836 42.3533 15.8825 42.3533C18.7814 42.3533 21.1767 39.9581 21.1767 37.0591C21.1767 34.1602 18.7814 31.7649 15.8825 31.7649V31.7649ZM30.7058 34.9416C29.5359 34.9416 28.5883 35.89 28.5883 37.0591C28.5883 38.229 29.5367 39.1766 30.7058 39.1766H59.2943C60.4643 39.1766 61.4118 38.2283 61.4118 37.0591C61.4118 35.8892 60.4635 34.9416 59.2943 34.9416H30.7058ZM15.8825 36.0008C16.4926 36.0008 16.9416 36.4498 16.9416 37.0599C16.9416 37.67 16.4926 38.1191 15.8825 38.1191C15.2724 38.1191 14.8234 37.67 14.8234 37.0599C14.8234 36.4498 15.2724 36.0008 15.8825 36.0008ZM15.8825 48.7066C12.9836 48.7066 10.5883 51.1018 10.5883 54.0008C10.5883 56.8997 12.9836 59.2949 15.8825 59.2949C18.7814 59.2949 21.1767 56.8997 21.1767 54.0008C21.1767 51.1018 18.7814 48.7066 15.8825 48.7066V48.7066ZM30.7058 51.8833C29.5359 51.8833 28.5883 52.8316 28.5883 54.0008C28.5883 55.1707 29.5367 56.1182 30.7058 56.1182H59.2943C60.4643 56.1182 61.4118 55.1699 61.4118 54.0008C61.4118 52.8309 60.4635 51.8833 59.2943 51.8833H30.7058ZM15.8825 52.9424C16.4926 52.9424 16.9416 53.3915 16.9416 54.0016C16.9416 54.6116 16.4926 55.0607 15.8825 55.0607C15.2724 55.0607 14.8234 54.6116 14.8234 54.0016C14.8234 53.3915 15.2724 52.9424 15.8825 52.9424ZM15.8825 65.6482C12.9836 65.6482 10.5883 68.0435 10.5883 70.9424C10.5883 73.8414 12.9836 76.2366 15.8825 76.2366C18.7814 76.2366 21.1767 73.8414 21.1767 70.9424C21.1767 68.0435 18.7814 65.6482 15.8825 65.6482V65.6482ZM30.7058 68.8249C29.5359 68.8249 28.5883 69.7733 28.5883 70.9424C28.5883 72.1123 29.5367 73.0599 30.7058 73.0599H59.2943C60.4643 73.0599 61.4118 72.1116 61.4118 70.9424C61.4118 69.7725 60.4635 68.8249 59.2943 68.8249H30.7058ZM15.8825 69.8841C16.4926 69.8841 16.9416 70.3331 16.9416 70.9432C16.9416 71.5533 16.4926 72.0023 15.8825 72.0023C15.2724 72.0023 14.8234 71.5533 14.8234 70.9432C14.8234 70.3331 15.2724 69.8841 15.8825 69.8841ZM57.177 82.5899H64.7541L57.177 90.167V82.5899Z" fill="#168F59"/>
</svg>
