<svg width="24" height="25" viewBox="0 0 24 25" fill="none" xmlns="http://www.w3.org/2000/svg">
<path d="M14.6758 4.57202H4.84274C4.57588 4.57202 4.35938 4.78817 4.35938 5.05539C4.35938 5.32261 4.57588 5.53876 4.84274 5.53876H14.6758C14.9427 5.53876 15.1592 5.32261 15.1592 5.05539C15.1592 4.78817 14.9427 4.57202 14.6758 4.57202Z" fill="#5B5858" stroke="#262626" stroke-width="0.2"/>
<path d="M14.6758 8.60522H4.84274C4.57588 8.60522 4.35938 8.82137 4.35938 9.08859C4.35938 9.35581 4.57588 9.57197 4.84274 9.57197H14.6758C14.9427 9.57197 15.1592 9.35581 15.1592 9.08859C15.1592 8.82155 14.9427 8.60522 14.6758 8.60522Z" fill="#5B5858" stroke="#262626" stroke-width="0.2"/>
<path d="M18.036 19.2228C17.7692 19.2228 17.5527 19.4393 17.5527 19.7062V21.5323C17.5527 22.3599 16.8792 23.0333 16.0517 23.0333H3.46756C2.63999 23.0333 1.96691 22.3598 1.96691 21.5323L1.96673 3.46771C1.96673 2.64013 2.63981 1.96673 3.46738 1.96673H16.0515C16.8791 1.96673 17.5525 2.64018 17.5525 3.46771V5.05932C17.5525 5.32654 17.769 5.54269 18.0358 5.54269C18.3027 5.54269 18.5192 5.32654 18.5192 5.05932V3.46771C18.5192 2.10682 17.412 1 16.0515 1H3.46738C2.1065 1 1 2.10719 1 3.46771V21.5323C1 22.8932 2.107 24 3.46738 24H16.0515C17.4124 24 18.5192 22.8928 18.5192 21.5323V19.7062C18.5189 19.4393 18.3027 19.2228 18.0355 19.2228H18.036Z" fill="#5B5858" stroke="#262626" stroke-width="0.2"/>
<path d="M22.1661 7.36798C21.8351 7.12719 21.4445 7 21.0367 7C20.4194 7 19.8348 7.29951 19.4726 7.8013L14.7253 14.387L12.3088 11.9045C11.9428 11.5284 11.4529 11.3214 10.9289 11.3214C10.4219 11.3214 9.94328 11.5175 9.5805 11.8733C9.21225 12.2351 9.00617 12.719 9.00012 13.2364C8.99436 13.7538 9.18932 14.2426 9.5497 14.6123L13.5665 18.7383C13.9272 19.1089 14.43 19.3214 14.9458 19.3214C14.9932 19.3214 15.0413 19.3195 15.0877 19.3161C15.6562 19.2741 16.174 18.9839 16.5087 18.5203L22.5974 10.073C22.8995 9.65392 23.0211 9.14173 22.9396 8.63076C22.8583 8.11965 22.5834 7.67109 22.1661 7.36793V7.36798ZM21.9858 9.62774L15.8971 18.075C15.6932 18.3573 15.3784 18.5336 15.0311 18.5594C14.6898 18.586 14.3467 18.4537 14.1072 18.2078L10.0904 14.0818C9.87151 13.8566 9.75259 13.5597 9.75639 13.2448C9.7599 12.9304 9.88542 12.6357 10.1093 12.4157C10.3297 12.1992 10.621 12.08 10.9292 12.08C11.2479 12.08 11.5459 12.2059 11.7685 12.4346L14.4986 15.2393C14.5767 15.3192 14.6869 15.3617 14.7966 15.3524C14.9076 15.344 15.0097 15.2869 15.0746 15.1965L20.0842 8.24626C20.3046 7.94096 20.6605 7.7586 21.0363 7.7586C21.284 7.7586 21.5213 7.83595 21.723 7.98246C21.9768 8.16679 22.1441 8.43976 22.1934 8.75044C22.243 9.06153 22.1692 9.37291 21.9857 9.62794L21.9858 9.62774Z" fill="#168F59" stroke="#168F59" stroke-width="0.2"/>
</svg>
