<svg width="12" height="15" viewBox="0 0 12 15" fill="none" xmlns="http://www.w3.org/2000/svg">
<path d="M10.7458 1.84761H7.86909V1.4351C7.86909 0.757336 7.37886 0.197571 6.78551 0.197571H5.34073C4.74728 0.197571 4.25715 0.757441 4.25715 1.4351V1.84761H1.38045C0.787006 1.84761 0.296875 2.40748 0.296875 3.08514V3.49765C0.296875 4.17541 0.787098 4.73518 1.38045 4.73518V12.9708C1.38045 13.6485 1.87068 14.2083 2.46403 14.2083H9.67513C10.2686 14.2083 10.7587 13.6484 10.7587 12.9708L10.7588 4.72071C11.3522 4.72071 11.8424 4.16084 11.8424 3.48318V3.07067C11.8295 2.39291 11.3393 1.84774 10.7459 1.84774L10.7458 1.84761ZM4.97948 1.4351C4.97948 1.21415 5.14721 1.02258 5.34068 1.02258H6.78546C6.97893 1.02258 7.14666 1.21414 7.14666 1.4351V1.84761H4.97951L4.97948 1.4351ZM10.0234 12.9561C10.0234 13.1771 9.85566 13.3686 9.66219 13.3686H2.46398C2.27052 13.3686 2.10278 13.1771 2.10278 12.9561L2.10269 4.7205H10.0362L10.0363 12.9561H10.0234ZM11.107 3.49768C11.107 3.71863 10.9392 3.9102 10.7458 3.9102H1.38036C1.1869 3.9102 1.01916 3.71864 1.01916 3.49768V3.08516C1.01916 2.86421 1.18689 2.67265 1.38036 2.67265H10.7458C10.9392 2.67265 11.107 2.8642 11.107 3.08516V3.49768Z" fill="#F0666F"/>
</svg>
