<svg width="32" height="32" viewBox="0 0 32 32" fill="none" xmlns="http://www.w3.org/2000/svg">
<circle cx="16" cy="16" r="16" fill="#168F59"/>
<g clip-path="url(#clip0_77_1536)">
<path d="M23.3114 14.5441H17.6954V8.92808C17.6954 8.21957 17.1252 7.63208 16.3994 7.63208C15.6909 7.63208 15.1034 8.20232 15.1034 8.92808V14.5441H9.48741C8.7789 14.5441 8.19141 15.1143 8.19141 15.8401C8.19141 16.203 8.32966 16.514 8.57157 16.7559C8.81348 16.9978 9.12459 17.1361 9.48741 17.1361H15.1034V22.7521C15.1034 23.115 15.2417 23.426 15.4836 23.6679C15.7255 23.9098 16.0366 24.0481 16.3994 24.0481C17.1079 24.0481 17.6954 23.4778 17.6954 22.7521V17.1361H23.3114C24.0199 17.1361 24.6074 16.5658 24.6074 15.8401C24.6074 15.1316 24.0372 14.5441 23.3114 14.5441Z" fill="white"/>
</g>
<defs>
<clipPath id="clip0_77_1536">
<rect width="21.6" height="21.6" fill="white" transform="translate(5.59961 7.2002)"/>
</clipPath>
</defs>
</svg>
