<svg width="93" height="93" viewBox="0 0 93 93" fill="none" xmlns="http://www.w3.org/2000/svg">
<path d="M39.3337 39.3335H30.9848C27.0726 39.3335 23.8332 42.5384 23.8332 46.4998C23.8332 50.4772 27.0345 53.6662 30.9848 53.6662H39.3337V62.0151C39.3337 65.9273 42.5385 69.1666 46.5 69.1666C50.4773 69.1666 53.6663 65.9654 53.6663 62.0151V53.6662H62.0152C65.9274 53.6662 69.1668 50.4613 69.1668 46.4998C69.1668 42.5225 65.9655 39.3335 62.0152 39.3335H53.6663V30.9846C53.6663 27.0724 50.4615 23.8331 46.5 23.8331C42.5226 23.8331 39.3337 27.0343 39.3337 30.9846V39.3335ZM91 46.5C91 71.0767 71.0767 91 46.5 91C21.9233 91 2 71.0767 2 46.5C2 21.9233 21.9233 2 46.5 2C71.0767 2 91 21.9233 91 46.5Z" stroke="#168F59" stroke-width="4"/>
</svg>
