<svg width="122" height="93" viewBox="0 0 122 93" fill="none" xmlns="http://www.w3.org/2000/svg">
<path d="M63.2404 2.00528C62.7194 2.02784 62.2091 2.17729 61.7425 2.44141L8.83416 32.3122C8.04572 32.7568 7.42271 33.5088 7.07705 34.4318C6.73139 35.3548 6.68612 36.3887 6.94866 37.3464C7.21121 38.3042 7.76508 39.1238 8.50991 39.6568V53.2435C4.72825 54.9476 2.00003 59.1641 2.00003 64.0499V79.0351C1.99592 80.1574 2.38519 81.2355 3.07982 82.0287C3.77526 82.822 4.71841 83.2666 5.701 83.2619H18.6856C19.6641 83.26 20.6024 82.8126 21.2929 82.0202C21.9833 81.2269 22.3685 80.1526 22.3652 79.0351V64.0498C22.3652 59.1763 19.6509 54.9728 15.884 53.2594V43.8506L27.6727 50.5119V76.2946C27.6727 79.7179 29.6718 82.2199 31.8066 83.8771C33.9416 85.5351 36.5653 86.741 39.6993 87.7675C45.9681 89.8193 54.2221 91 63.3765 91C72.531 91 80.8145 89.8204 87.0833 87.7675C90.2173 86.7411 92.841 85.5352 94.9759 83.8771C97.1109 82.2191 99.1164 79.717 99.1164 76.2946V50.5023L117.948 39.8596C118.773 39.3934 119.417 38.5916 119.75 37.6113C120.083 36.63 120.083 35.5415 119.75 34.5612C119.417 33.5799 118.773 32.7772 117.948 32.3109L65.0393 2.44011C64.4813 2.12336 63.8624 1.97297 63.2394 2.00399L63.2404 2.00528ZM63.377 10.896L108.018 36.1036L94.105 43.9662C93.9955 44.0122 93.8869 44.0639 93.7815 44.1222L63.379 61.2778L33.0039 44.1222C32.9628 44.1015 32.9225 44.0827 32.8813 44.0649L18.7957 36.1036L63.377 10.896ZM35.0477 54.6917L61.742 69.7671L61.7428 69.7662C62.7807 70.3593 64.0029 70.3593 65.0406 69.7662L91.7433 54.6917V76.2969C91.7433 75.779 91.9408 76.0695 90.843 76.922C89.7451 77.7754 87.7007 78.816 85.0456 79.6853C79.7365 81.4232 71.9648 82.5718 63.3762 82.5718C54.7881 82.5718 47.0527 81.4232 41.7426 79.6853C39.0875 78.8159 37.0441 77.7744 35.9453 76.922C34.8474 76.0685 35.045 75.779 35.045 76.2969L35.0477 54.6917ZM12.1837 60.8521C13.8001 60.8521 14.9852 62.2056 14.9852 64.0516V74.8337L9.38297 74.8327V64.0507C9.38297 62.2047 10.5681 60.8511 12.1845 60.8511L12.1837 60.8521Z" fill="#168F59" stroke="white" stroke-width="4"/>
</svg>
