<?xml version="1.0" encoding="UTF-8"?>
<svg width="700pt" height="700pt" version="1.1" viewBox="0 0 700 700" xmlns="http://www.w3.org/2000/svg">
 <path d="m514.34 141.28c-6.0625 0.17969-11.816 2.7109-16.043 7.0625l-214.19 214.05-82.441-82.168c-4.3516-4.5156-10.336-7.0938-16.605-7.1484-6.2695-0.054687-12.301 2.418-16.727 6.8594-4.4297 4.4375-6.8828 10.473-6.8125 16.746 0.074219 6.2695 2.6641 12.246 7.1953 16.586l98.938 98.664c4.3828 4.3672 10.32 6.8164 16.508 6.8086 6.1875-0.007813 12.117-2.4766 16.488-6.8555l230.64-230.55c4.5234-4.3945 7.0742-10.434 7.0703-16.742-0.003906-6.3047-2.5586-12.344-7.082-16.734-4.5273-4.3945-10.637-6.7656-16.941-6.582z" fill-rule="evenodd"/>
</svg>
