<svg width="76" height="76" viewBox="0 0 76 76" fill="none" xmlns="http://www.w3.org/2000/svg">
<path d="M65.3253 43.2939C63.0028 41.737 60.4064 40.6335 57.6739 40.041C55.8808 34.648 50.6397 30.4104 44.2165 28.7018C47.4927 26.8565 49.7795 23.6515 50.4589 19.9533C51.1383 16.2552 50.1396 12.4466 47.7328 9.55761C45.3264 6.66864 41.7609 4.99805 38.0008 4.99805C34.2406 4.99805 30.6751 6.66864 28.2688 9.55761C25.862 12.4466 24.8632 16.2552 25.5426 19.9533C26.2221 23.6515 28.5088 26.8565 31.7851 28.7018C25.3615 30.4105 20.1202 34.6483 18.3276 40.041C15.5951 40.6335 12.9987 41.737 10.6763 43.2939C10.3366 43.531 10.1343 43.919 10.1343 44.333V54.4666C10.1347 54.9382 10.3972 55.3712 10.8154 55.5892C11.2336 55.8076 11.7387 55.7754 12.1258 55.5057C18.9442 50.743 30.4581 50.743 37.2764 55.5057C37.712 55.8089 38.2904 55.8089 38.7261 55.5057C45.5445 50.743 57.0583 50.743 63.8766 55.5057C64.2638 55.7754 64.769 55.8076 65.1871 55.5892C65.6053 55.3712 65.8678 54.9382 65.8682 54.4666V44.333C65.8682 43.919 65.6659 43.531 65.3262 43.2939H65.3253ZM27.8671 17.7329C27.8671 15.0454 28.9345 12.4681 30.835 10.5677C32.7354 8.66722 35.3127 7.59974 38.0002 7.59974C40.6878 7.59974 43.2651 8.66722 45.1655 10.5677C47.0659 12.4681 48.1334 15.0454 48.1334 17.7329C48.1334 20.4205 47.0659 22.9982 45.1655 24.8982C43.2651 26.7986 40.6878 27.8666 38.0002 27.8666C35.3135 27.8632 32.7379 26.7948 30.8383 24.8948C28.9388 22.9953 27.87 20.4196 27.8671 17.7329ZM36.7334 52.2098C33.0111 50.3051 28.8815 49.3331 24.7005 49.3767C20.5192 49.333 16.3896 50.3051 12.6675 52.2098V45.0093C19.3548 40.7318 30.0465 40.7318 36.7345 45.0093L36.7334 52.2098ZM38.0002 42.8802C33.341 39.9212 27.1549 38.8131 21.3248 39.4976C23.8982 34.1581 30.5927 30.3992 38.0002 30.3992C45.4077 30.3992 52.1026 34.1581 54.6757 39.4976C48.8455 38.8131 42.659 39.9208 38.0002 42.8802ZM63.3332 52.2098C59.6108 50.3051 55.4813 49.3331 51.3002 49.3767C47.1189 49.333 42.9894 50.3051 39.2673 52.2098V45.0093C45.9546 40.7318 56.6463 40.7318 63.3343 45.0093L63.3332 52.2098Z" fill="#168F59"/>
</svg>
