<svg width="37" height="29" viewBox="0 0 37 29" fill="none" xmlns="http://www.w3.org/2000/svg">
<path d="M18.3962 0.250365H18.4989C22.366 0.277835 25.876 1.85492 28.4296 4.3945L26.5263 7.02404C24.5155 4.83206 21.6219 3.45479 18.396 3.45479C13.5629 3.45479 9.46953 6.53132 7.96539 10.8404L7.84936 11.1727H8.20142H12.1336L6.31085 19.2587L0.488101 11.1727H4.34355H4.53776L4.58578 10.9846C6.15775 4.82535 11.7587 0.250365 18.3962 0.250365ZM28.5781 17.8144H24.6587L30.4815 9.72848L36.3043 17.8145H32.436H32.2415L32.1937 18.003C30.6296 24.1685 25.0382 28.75 18.3965 28.75C14.4875 28.75 10.9406 27.1665 8.36236 24.6053L10.2538 21.9884C12.2709 24.1779 15.1734 25.5452 18.3959 25.5452C23.2345 25.5452 27.3169 22.4621 28.8142 18.1464L28.9294 17.8144H28.5781Z" fill="#5B5858" stroke="#FCFCF7" stroke-width="0.5"/>
</svg>
