<svg width="87" height="118" viewBox="0 0 87 118" fill="none" xmlns="http://www.w3.org/2000/svg">
<path d="M2.55861 0.00137092C1.21904 0.00137092 0 1.22045 0 2.55998V115.149C0 116.412 1.14947 117.704 2.55861 117.707H84.4414C85.781 117.707 87 116.488 87 115.149V20.4718C87 19.8043 86.7153 19.1421 86.2405 18.6727L68.3291 0.761254C67.8597 0.284694 67.1975 0.00534614 66.5299 0L2.55861 0.00137092ZM5.11722 5.11859H63.9705V20.4714C63.9874 21.6592 64.9745 23.0275 66.5291 23.03H81.8819V112.589H5.11676L5.11722 5.11859ZM69.0881 8.75716L78.2438 17.9128H69.0881V8.75716ZM17.9114 26.8685C16.4978 26.8685 15.3528 28.0144 15.3528 29.4271C15.3528 30.8407 16.4987 31.9857 17.9114 31.9857H69.0881C70.5018 31.9857 71.6468 30.8398 71.6468 29.4271C71.6468 28.0134 70.5009 26.8685 69.0881 26.8685H17.9114ZM17.9114 49.898C16.4978 49.898 15.3528 51.0439 15.3528 52.4566C15.3528 53.8703 16.4987 55.0152 17.9114 55.0152H69.0881C70.5018 55.0152 71.6468 53.8693 71.6468 52.4566C71.6468 51.043 70.5009 49.898 69.0881 49.898H17.9114ZM17.9114 72.9275C16.4978 72.9275 15.3528 74.0735 15.3528 75.4862C15.3528 76.8998 16.4987 78.0448 17.9114 78.0448H69.0881C70.5018 78.0448 71.6468 76.8989 71.6468 75.4862C71.6468 74.0725 70.5009 72.9275 69.0881 72.9275H17.9114ZM74.0459 83.1229C73.3935 83.1693 72.7643 83.4772 72.327 83.9627L57.2534 100.196L48.8573 93.8789C47.7801 93.065 46.0558 93.314 45.2543 94.401C44.4529 95.4871 44.7224 97.2086 45.8184 97.9975L56.0539 105.674C57.0561 106.414 58.6064 106.269 59.4524 105.355L76.0851 87.4436C76.7928 86.7011 76.9846 85.5132 76.5464 84.585C76.1082 83.6568 75.0685 83.0509 74.0459 83.1259L74.0459 83.1229ZM17.9114 95.9564C16.4978 95.9564 15.3528 97.1023 15.3528 98.515C15.3528 99.9287 16.4987 101.074 17.9114 101.074H37.1027C38.5163 101.074 39.6613 99.9277 39.6613 98.515C39.6613 97.1014 38.5154 95.9564 37.1027 95.9564H17.9114Z" fill="#5B5858"/>
</svg>
