<svg width="39" height="38" viewBox="0 0 39 38" fill="none" xmlns="http://www.w3.org/2000/svg">
<path d="M27.8731 23.8994H26.1115L25.4871 23.3128C27.6724 20.8359 28.988 17.6204 28.988 14.1224C28.988 6.32247 22.4991 0 14.494 0C6.48885 0 0 6.32247 0 14.1224C0 21.9222 6.48885 28.2447 14.494 28.2447C18.084 28.2447 21.3842 26.9628 23.9262 24.8336L24.5283 25.442V27.1584L35.6775 38L39 34.7627L27.8731 23.8994ZM14.494 23.8994C8.94168 23.8994 4.45969 19.5323 4.45969 14.1224C4.45969 8.71241 8.94168 4.34534 14.494 4.34534C20.0463 4.34534 24.5283 8.71241 24.5283 14.1224C24.5283 19.5323 20.0463 23.8994 14.494 23.8994Z" fill="#5B5858"/>
</svg>
