<svg width="120" height="120" viewBox="0 0 120 120" fill="none" xmlns="http://www.w3.org/2000/svg">
<rect width="120" height="120" fill="white"/>
<path d="M67.8731 64.8994H66.1115L65.4871 64.3128C67.6724 61.8359 68.988 58.6204 68.988 55.1224C68.988 47.3225 62.4991 41 54.494 41C46.4889 41 40 47.3225 40 55.1224C40 62.9222 46.4889 69.2447 54.494 69.2447C58.084 69.2447 61.3842 67.9628 63.9262 65.8336L64.5283 66.442V68.1584L75.6775 79L79 75.7627L67.8731 64.8994ZM54.494 64.8994C48.9417 64.8994 44.4597 60.5323 44.4597 55.1224C44.4597 49.7124 48.9417 45.3453 54.494 45.3453C60.0463 45.3453 64.5283 49.7124 64.5283 55.1224C64.5283 60.5323 60.0463 64.8994 54.494 64.8994Z" fill="#5B5858"/>
</svg>
