<svg width="100" height="100" viewBox="0 0 100 100" fill="none" xmlns="http://www.w3.org/2000/svg">
<g clip-path="url(#clip0_401_99)">
<path d="M99.6854 37.7182C99.2977 36.4317 98.5304 35.3077 97.4927 34.5051C96.4558 33.7033 95.2015 33.2648 93.9112 33.2537L65.1904 32.7347L55.8412 4.35858C55.2788 2.65152 54.0588 1.26825 52.4762 0.543838C50.8935 -0.181279 49.0935 -0.181279 47.5108 0.543838C45.9281 1.26821 44.7085 2.65152 44.1462 4.35858L34.7968 32.7347L6.07596 33.2537C4.34862 33.2857 2.71242 34.0711 1.56388 35.4193C0.415881 36.7682 -0.14066 38.5573 0.0303812 40.3538C0.200691 42.1492 1.08288 43.7892 2.46319 44.8758L25.4048 62.9327L17.0033 91.6292C16.4361 93.59 16.7881 95.715 17.9525 97.3631C19.1168 99.0108 20.9568 99.9881 22.9179 100C24.1892 99.9954 25.4284 99.5808 26.4658 98.8127L49.9931 81.5965L73.5204 98.8127C74.9354 99.8481 76.7015 100.218 78.3896 99.8323C80.0777 99.4469 81.5342 98.3408 82.4069 96.7823C83.2792 95.2242 83.4889 93.3558 82.9827 91.6292L74.5812 62.9327L97.5227 44.8758C98.5604 44.0746 99.3285 42.95 99.7169 41.6638C100.105 40.3781 100.094 38.9973 99.6842 37.7183L99.6854 37.7182ZM95.6442 42.2685L71.8235 61.0096C71.2985 61.4231 71.0773 62.1346 71.2696 62.7912L79.9962 92.5854C80.2462 93.44 80.1431 94.3638 79.7112 95.135C79.2792 95.9065 78.5581 96.4535 77.7231 96.6435C76.8873 96.8342 76.0142 96.6508 75.3139 96.1381L50.8908 78.2662C50.3523 77.8731 49.6354 77.8731 49.0965 78.2662L24.6736 96.1381C23.9732 96.6508 23.1002 96.8342 22.2643 96.6435C21.4292 96.4535 20.708 95.9065 20.2763 95.135C19.8445 94.3638 19.7411 93.44 19.9913 92.5854L28.7133 62.795C28.9086 62.1385 28.6891 61.4254 28.1639 61.0104L4.34296 42.2692C3.66029 41.7315 3.22419 40.9204 3.13938 40.0315C3.0553 39.1423 3.33036 38.258 3.899 37.5909C4.46696 36.9232 5.27646 36.5353 6.13081 36.5189L35.9444 35.9799C36.6014 35.968 37.1814 35.528 37.3952 34.8788L47.1008 5.42208C47.3781 4.57708 47.9815 3.89219 48.7646 3.53333C49.5477 3.17448 50.4385 3.1745 51.2215 3.53333C52.005 3.89215 52.6085 4.57708 52.8858 5.42208L62.5904 34.8788C62.8042 35.528 63.3842 35.968 64.0412 35.9799L93.855 36.5189C94.7096 36.5353 95.5196 36.9232 96.0873 37.5909C96.6562 38.258 96.9312 39.1423 96.8469 40.0315C96.7623 40.9204 96.3262 41.7319 95.6435 42.2692L95.6442 42.2685Z" fill="#168F59" stroke="#168F59"/>
</g>
<defs>
<clipPath id="clip0_401_99">
<rect width="100" height="100" fill="white"/>
</clipPath>
</defs>
</svg>
