<svg width="26" height="26" viewBox="0 0 26 26" fill="none" xmlns="http://www.w3.org/2000/svg">
<path d="M25.9182 9.80672C25.8174 9.47225 25.6179 9.17999 25.3481 8.97132C25.0785 8.76286 24.7524 8.64885 24.4169 8.64595L16.9495 8.51103L14.5187 1.13323C14.3725 0.689394 14.0553 0.329745 13.6438 0.141398C13.2323 -0.0471326 12.7643 -0.0471326 12.3528 0.141398C11.9413 0.329735 11.6242 0.689394 11.478 1.13323L9.04717 8.51103L1.57975 8.64595C1.13064 8.65427 0.705229 8.85848 0.406608 9.20901C0.108129 9.55974 -0.0365715 10.0249 0.00789913 10.492C0.0521796 10.9588 0.281548 11.3852 0.640429 11.6677L6.60526 16.3625L4.42086 23.8236C4.27338 24.3334 4.36491 24.8859 4.66765 25.3144C4.97038 25.7428 5.44878 25.9969 5.95865 26C6.28918 25.9988 6.61139 25.891 6.88112 25.6913L12.9982 21.2151L19.1153 25.6913C19.4832 25.9605 19.9424 26.0567 20.3813 25.9564C20.8202 25.8562 21.1989 25.5686 21.4258 25.1634C21.6526 24.7583 21.7071 24.2725 21.5755 23.8236L19.3911 16.3625L25.3559 11.6677C25.6257 11.4594 25.8254 11.167 25.9264 10.8326C26.0274 10.4983 26.0244 10.1393 25.9179 9.80676L25.9182 9.80672ZM24.8675 10.9898L18.6741 15.8625C18.5376 15.97 18.4801 16.155 18.5301 16.3257L20.799 24.0722C20.864 24.2944 20.8372 24.5346 20.7249 24.7351C20.6126 24.9357 20.4251 25.0779 20.208 25.1273C19.9907 25.1769 19.7637 25.1292 19.5816 24.9959L13.2316 20.3492C13.0916 20.247 12.9052 20.247 12.7651 20.3492L6.41514 24.9959C6.23302 25.1292 6.00606 25.1769 5.78873 25.1273C5.57159 25.0779 5.38409 24.9357 5.27184 24.7351C5.15956 24.5346 5.13269 24.2944 5.19773 24.0722L7.46546 16.3267V16.3269C7.51623 16.1562 7.45916 15.9706 7.32262 15.8627L1.12917 10.99C0.951676 10.8502 0.838289 10.6393 0.816239 10.4082C0.794377 10.177 0.865894 9.94709 1.01374 9.77364C1.16141 9.60002 1.37188 9.49917 1.59401 9.49491L9.34554 9.35477H9.34572C9.51655 9.35168 9.66717 9.23728 9.72276 9.0685L12.2462 1.40974C12.3183 1.19004 12.4752 1.01197 12.6788 0.918666C12.8824 0.825365 13.114 0.82537 13.3176 0.918666C13.5213 1.01196 13.6782 1.19004 13.7503 1.40974L16.2735 9.0685H16.2737C16.3293 9.23728 16.4799 9.35168 16.6507 9.35477L24.4023 9.49491H24.4024C24.6246 9.49917 24.8351 9.60002 24.9827 9.77364C25.1306 9.94707 25.2021 10.177 25.1802 10.4082C25.1582 10.6393 25.0448 10.8503 24.8673 10.99L24.8675 10.9898Z" fill="#FFCB08"/>
</svg>
