<svg width="26" height="26" viewBox="0 0 26 26" fill="none" xmlns="http://www.w3.org/2000/svg">
<path fill-rule="evenodd" clip-rule="evenodd" d="M13.7534 0.488332L17.0329 7.74354C17.1216 8.02259 17.3875 8.20862 17.6534 8.30164L25.2761 9.32481C25.9851 9.41782 26.2511 10.255 25.7192 10.8131L20.1352 16.301C19.9579 16.487 19.8693 16.7661 19.8693 17.1381L21.3761 24.9514C21.4647 25.6955 20.7556 26.2536 20.1352 25.8816L13.3989 22.0679C13.133 21.8819 12.867 21.8819 12.6011 22.0679L5.86482 25.8816C5.24437 26.2536 4.53528 25.6955 4.71255 24.9514L6.13072 17.1381C6.13072 16.7661 6.04209 16.487 5.86482 16.301L0.28076 10.8131C-0.251055 10.255 0.0148527 9.41782 0.723939 9.32481L8.34662 8.30164C8.61253 8.20862 8.87843 8.02259 8.96707 7.74354L12.2466 0.488332C12.5125 -0.162777 13.4875 -0.162777 13.7534 0.488332Z" fill="#FFCB08"/>
</svg>
