<svg width="28" height="24" viewBox="0 0 28 24" fill="none" xmlns="http://www.w3.org/2000/svg">
<path d="M18.2213 7.17207H4.27004L10.4386 1.55785L9.03519 0L0 8.20686L9.02078 16.4068L10.4242 14.849L4.30506 9.27711H18.2206C19.965 9.1606 21.6795 9.77225 22.9561 10.9664C24.2328 12.1608 24.9575 13.8308 24.9575 15.5788C24.9575 17.3271 24.2328 18.9971 22.9561 20.1912C21.6795 21.3854 19.965 21.997 18.2206 21.8808H13.6594V23.9862L18.2206 23.9859C20.5346 24.1198 22.8014 23.2938 24.487 21.7028C26.1723 20.1119 27.1277 17.8966 27.1277 15.5788C27.1277 13.261 26.1724 11.0457 24.487 9.45481C22.8014 7.86388 20.5344 7.03787 18.2206 7.1717L18.2213 7.17207Z" fill="#ED1651"/>
</svg>
