<svg width="120" height="120" viewBox="0 0 120 120" fill="none" xmlns="http://www.w3.org/2000/svg">
<rect width="120" height="120" fill="white"/>
<path d="M79.6671 69.218C77.9558 68.0708 76.0426 67.2577 74.0292 66.8211C72.7079 62.8474 68.8461 59.7249 64.1132 58.4659C66.5273 57.1062 68.2123 54.7446 68.7129 52.0197C69.2135 49.2947 68.4776 46.4884 66.7042 44.3597C64.9311 42.231 62.3039 41 59.5332 41C56.7626 41 54.1354 42.231 52.3623 44.3597C50.5888 46.4884 49.8529 49.2947 50.3535 52.0197C50.8542 54.7446 52.5391 57.1062 54.9532 58.4659C50.2201 59.725 46.358 62.8475 45.0372 66.8211C43.0238 67.2577 41.1107 68.0708 39.3994 69.218C39.1491 69.3927 39 69.6786 39 69.9836V77.4505C39.0003 77.798 39.1938 78.1171 39.5019 78.2777C39.81 78.4386 40.1822 78.4149 40.4675 78.2161C45.4916 74.7068 53.9755 74.7068 58.9995 78.2161C59.3204 78.4396 59.7467 78.4396 60.0676 78.2161C65.0917 74.7068 73.5756 74.7068 78.5996 78.2161C78.8849 78.4149 79.2571 78.4386 79.5652 78.2777C79.8734 78.1171 80.0668 77.798 80.0671 77.4505V69.9836C80.0671 69.6786 79.918 69.3927 79.6677 69.218H79.6671ZM52.0663 50.3836C52.0663 48.4033 52.8528 46.5042 54.2531 45.1039C55.6535 43.7036 57.5525 42.917 59.5328 42.917C61.5131 42.917 63.4122 43.7036 64.8125 45.1039C66.2128 46.5042 66.9994 48.4033 66.9994 50.3836C66.9994 52.3639 66.2128 54.2633 64.8125 55.6633C63.4122 57.0636 61.5131 57.8505 59.5328 57.8505C57.5531 57.848 55.6553 57.0608 54.2556 55.6608C52.8559 54.2611 52.0684 52.3633 52.0663 50.3836V50.3836ZM58.5994 75.7876C55.8566 74.3842 52.8138 73.6679 49.733 73.7001C46.652 73.6679 43.6092 74.3841 40.8666 75.7876V70.482C45.7941 67.3302 53.6722 67.3302 58.6002 70.482L58.5994 75.7876ZM59.5328 68.9132C56.0997 66.7329 51.5415 65.9163 47.2456 66.4207C49.1419 62.4863 54.0747 59.7166 59.5328 59.7166C64.991 59.7166 69.924 62.4863 71.82 66.4207C67.5241 65.9163 62.9656 66.7326 59.5328 68.9132ZM78.1992 75.7876C75.4564 74.3842 72.4136 73.6679 69.3328 73.7001C66.2519 73.6679 63.2091 74.3841 60.4664 75.7876V70.482C65.3939 67.3302 73.272 67.3302 78.2 70.482L78.1992 75.7876Z" fill="#5B5858"/>
</svg>
