<svg width="15" height="15" viewBox="0 0 15 15" fill="none" xmlns="http://www.w3.org/2000/svg">
<g clip-path="url(#clip0_257_607)">
<path d="M7.5 0C3.36448 0 0 3.36448 0 7.5C0 11.6355 3.36448 15 7.5 15C11.6355 15 15 11.6355 15 7.5C15 3.36448 11.6355 0 7.5 0ZM7.5 14.369C5.83973 14.369 4.31555 13.777 3.12661 12.7929C3.60994 11.4509 4.89982 10.5292 6.33588 10.5292H8.64204C10.0848 10.5292 11.3789 11.4553 11.8605 12.8034C10.6737 13.781 9.15438 14.369 7.5 14.369ZM12.359 12.3506C11.7257 10.8862 10.2636 9.89827 8.64225 9.89827H6.33588C4.72188 9.89827 3.26437 10.8811 2.62983 12.3388C1.39526 11.0962 0.630959 9.38573 0.630959 7.5C0.630959 3.71236 3.71236 0.630959 7.5 0.630959C11.2876 0.630959 14.369 3.71236 14.369 7.5C14.369 9.39162 13.6003 11.1072 12.359 12.3506Z" fill="#5B5858" stroke="#5B5858" stroke-width="0.2"/>
<path d="M7.50072 3.19629C5.85161 3.19629 4.50977 4.53792 4.50977 6.18724C4.50977 7.83656 5.8514 9.1782 7.50072 9.1782C9.15004 9.1782 10.4917 7.83656 10.4917 6.18724C10.4917 4.53792 9.14983 3.19629 7.50072 3.19629ZM7.50072 8.54723C6.19947 8.54723 5.14073 7.48849 5.14073 6.18724C5.14073 4.88599 6.19947 3.82725 7.50072 3.82725C8.80197 3.82725 9.86071 4.88599 9.86071 6.18724C9.86071 7.48849 8.80197 8.54723 7.50072 8.54723Z" fill="#5B5858" stroke="#5B5858" stroke-width="0.2"/>
</g>
<defs>
<clipPath id="clip0_257_607">
<rect width="15" height="15" fill="white"/>
</clipPath>
</defs>
</svg>
