<?xml version="1.0" encoding="UTF-8"?>
<svg width="700pt" height="700pt" version="1.1" viewBox="0 0 700 700" xmlns="http://www.w3.org/2000/svg">
 <path d="m226.5 123.5c-9.1133-9.1133-23.887-9.1133-33 0s-9.1133 23.887 0 33l123.5 123.5-123.5 123.5c-9.1133 9.1133-9.1133 23.887 0 33 9.1133 9.1094 23.887 9.1094 33 0l123.5-123.5 123.5 123.5c9.1133 9.1094 23.887 9.1094 33 0 9.1094-9.1133 9.1094-23.887 0-33l-123.5-123.5 123.5-123.5c9.1094-9.1133 9.1094-23.887 0-33-9.1133-9.1133-23.887-9.1133-33 0l-123.5 123.5z" fill-rule="evenodd"/>
</svg>
