<svg width="328" height="328" viewBox="0 0 328 328" fill="none" xmlns="http://www.w3.org/2000/svg">
<path fill-rule="evenodd" clip-rule="evenodd" d="M40.499 7.50001C31.3857 -1.61329 16.612 -1.61329 7.49904 7.50001C-1.61396 16.6133 -1.61426 31.387 7.49904 40.5L130.999 164L7.49904 287.5C-1.61426 296.613 -1.61426 311.387 7.49904 320.5C16.6123 329.609 31.386 329.609 40.499 320.5L163.999 197L287.499 320.5C296.612 329.609 311.386 329.609 320.499 320.5C329.608 311.387 329.608 296.613 320.499 287.5L196.999 164L320.499 40.5C329.608 31.3867 329.608 16.613 320.499 7.50001C311.386 -1.61329 296.612 -1.61329 287.499 7.50001L163.999 131L40.499 7.50001Z" fill="#414141"/>
</svg>
